<!-- <svg width="50" height="50" viewBox="0 0 50 50" fill="none" xmlns="http://www.w3.org/2000/svg">
<g clip-path="url(#clip0_219_523)">
<circle cx="25" cy="25" r="22.5" stroke="#4B4B4B" stroke-width="5"/>
<path d="M34.5524 45.3716C35.1386 46.6217 34.6033 48.1232 33.3009 48.5817C29.1743 50.0343 24.7234 50.3834 20.3948 49.5722C15.2442 48.6069 10.5271 46.0475 6.91016 42.2557C3.29318 38.4638 0.959162 33.6313 0.237921 28.4408C-0.368215 24.0788 0.19048 19.6493 1.83617 15.5958C2.35556 14.3165 3.88066 13.8527 5.10172 14.4972V14.4972C6.32277 15.1417 6.77389 16.6504 6.28665 17.9423C5.1119 21.0571 4.72854 24.4293 5.19034 27.7527C5.76733 31.905 7.63454 35.7711 10.5281 38.8045C13.4217 41.838 17.1954 43.8855 21.3159 44.6578C24.6137 45.2758 28.0003 45.052 31.1671 44.0255C32.4805 43.5997 33.9662 44.1215 34.5524 45.3716V45.3716Z" fill="#A0D4FF"/>
</g>
<defs>
<clipPath id="clip0_219_523">
<rect width="50" height="50" fill="white"/>
</clipPath>
</defs>
</svg>
 -->

 <!-- <svg width="50" height="50" viewBox="0 0 50 50" fill="none" xmlns="http://www.w3.org/2000/svg">
<g clip-path="url(#clip0_223_516)">
<circle cx="25" cy="25" r="22.5" stroke="#2570D2" stroke-width="5"/>
<path d="M34.5524 45.3716C35.1386 46.6217 34.6033 48.1232 33.3009 48.5817C29.1743 50.0343 24.7234 50.3834 20.3948 49.5722C15.2442 48.6069 10.5271 46.0475 6.91016 42.2557C3.29318 38.4638 0.959162 33.6313 0.237921 28.4408C-0.368215 24.0788 0.19048 19.6493 1.83617 15.5958C2.35556 14.3165 3.88066 13.8527 5.10172 14.4972V14.4972C6.32277 15.1417 6.77389 16.6504 6.28665 17.9423C5.1119 21.0571 4.72854 24.4293 5.19034 27.7527C5.76733 31.905 7.63454 35.7711 10.5281 38.8045C13.4217 41.838 17.1954 43.8855 21.3159 44.6578C24.6137 45.2758 28.0003 45.052 31.1671 44.0255C32.4805 43.5997 33.9662 44.1215 34.5524 45.3716V45.3716Z" fill="#C7E6FF"/>
</g>
<defs>
<clipPath id="clip0_223_516">
<rect width="50" height="50" fill="white"/>
</clipPath>
</defs>
</svg> -->

<svg width="50" height="50" viewBox="0 0 50 50" fill="none" xmlns="http://www.w3.org/2000/svg">
<g clip-path="url(#clip0_223_516)">
<circle cx="25" cy="25" r="22.5" stroke="#21487A" stroke-width="5"/>
<path d="M34.5524 45.3716C35.1386 46.6217 34.6033 48.1232 33.3009 48.5817C29.1743 50.0343 24.7234 50.3834 20.3948 49.5722C15.2442 48.6069 10.5271 46.0475 6.91016 42.2557C3.29318 38.4638 0.959162 33.6313 0.237921 28.4408C-0.368215 24.0788 0.19048 19.6493 1.83617 15.5958C2.35556 14.3165 3.88066 13.8527 5.10172 14.4972V14.4972C6.32277 15.1417 6.77389 16.6504 6.28665 17.9423C5.1119 21.0571 4.72854 24.4293 5.19034 27.7527C5.76733 31.905 7.63454 35.7711 10.5281 38.8045C13.4217 41.838 17.1954 43.8855 21.3159 44.6578C24.6137 45.2758 28.0003 45.052 31.1671 44.0255C32.4805 43.5997 33.9662 44.1215 34.5524 45.3716V45.3716Z" fill="#C7E6FF"/>
</g>
<defs>
<clipPath id="clip0_223_516">
<rect width="50" height="50" fill="white"/>
</clipPath>
</defs>
</svg>
 
